<svg id="Layer_1" xmlns="http://www.w3.org/2000/svg" viewBox="0 0 226.8 311.8"><style>.st0{fill-rule:evenodd;clip-rule:evenodd;}</style><path class="st0" d="M126 53.1h7v45.5c2.1 3.4 10.5 5.5 11.7 9.5 1.4 4.4-1 9.5 0 15.4-1.8-.2-4.6.5-5.9-.4v-12.8c-2.4-3.7-10.4-5.3-11.7-9.5-.8-2.4 0-6.9 0-10.3V59.7c-9.8 6-20.9 13.8-31.2 20.5-2.7 1.8-9.2 5-9.9 7.3-1.4 4.2 0 10.6 0 15.8v15.8c-3.6 2.1-7.2 4.9-11.7 7.7-2.6 1.7-10.6 4.6-11.7 7.7-1.1 3.1 0 8.1 0 12.1v12.1c-1.8-.2-4.6.5-5.9-.4v-27.5c7.6-5.4 16.4-9.5 23.5-15.4V84.2c14.7-10.9 30.9-20.4 45.8-31.1z"/><path class="st0" d="M103.7 82.4h5.9v5.9h-5.9v-5.9zM115.4 82.4h5.9v5.9h-5.9v-5.9zM91.9 94.1h5.9v5.9h-5.9v-5.9zM103.7 94.1h5.9v5.9h-5.9v-5.9zM115.4 94.1h5.9v5.9h-5.9v-5.9zM91.9 105.9h5.9v5.9h-5.9v-5.9zM103.7 105.9h5.9v5.9h-5.9v-5.9zM115.4 105.9h5.9v5.9h-5.9v-5.9zM91.9 117.6h5.9v5.9h-5.9v-5.9zM103.7 117.6h5.9v5.9h-5.9v-5.9zM115.4 117.6h5.9v5.9h-5.9v-5.9zM127.1 117.6h5.9v5.9h-5.9v-5.9zM80.2 129.3h5.9v5.9h-5.9v-5.9zM91.9 129.3h5.9v5.9h-5.9v-5.9zM103.7 129.3h5.9v5.9h-5.9v-5.9zM115.4 129.3h5.9v5.9h-5.9v-5.9zM127.1 129.3h5.9v5.9h-5.9v-5.9z"/><path class="st0" d="M206.3 240.8h-5.9v-11.4c-54-.9-109.6-.1-164.3-.4v11.7h-5.9v-17.6h26.4v-5.9c-5.8-2.7-11.4-6.2-11.7-13.9-.3-6.7 3.3-15.5 5.5-21.3 1.1-2.9 5.5-18 9.5-17.6 3.5.3 7.9 15.6 8.8 18 2.3 6.2 6.2 14.5 5.5 21.6-.7 7.4-6.5 10.4-11.7 13.6v5.5H127c.2-27.3-.5-55.5.4-82.1h11.4v-11.7c9.7.2 20.3-.5 29.3.4v11.4h11.7v52.8c-1.8-.2-4.6.5-5.9-.4v-46.6h-41.1v76.3h23.8c-1.4-4.7 1.8-9.9 5.9-11.4 1.4-15.3 26.9-15.3 28.6-.4 6.1.3 10.6 5.6 8.4 11.7 2.1.2 5.1-.5 6.6.4.2 5.8.2 11.6.2 17.3zm-61.6-105.6v5.9h17.6v-5.9h-17.6zm-88 75.9v-11.4c1.8.2 4.6-.5 5.9.4v11c13.8-3.6-1-30.2-3.3-35.9-2.2 9.4-15.9 30.7-2.6 35.9zm128.7-.4c-2.3-6.7-14.2-7.1-16.9 0-.7 1.9.1 3.5-1.1 5.9-3.1.4-6.7 1.7-4.8 5.9 8.9 1.2 22.7 1.2 31.5 0 .6-1.4.5-3.8-.4-4.8-2.3-1.2-3.8.6-6.2.4-2.7-1.3-1.2-5-2.1-7.4zM68.5 141.1h5.9v5.9h-5.9v-5.9zM80.2 141.1h5.9v5.9h-5.9v-5.9z"/><path class="st0" d="M91.9 141.1h5.9v5.9h-5.9v-5.9zM103.7 141.1h5.9v5.9h-5.9v-5.9zM115.4 141.1h5.9v5.9h-5.9v-5.9zM68.5 152.8h5.9v5.9h-5.9v-5.9zM80.2 152.8h5.9v5.9h-5.9v-5.9zM91.9 152.8h5.9v5.9h-5.9v-5.9zM103.7 152.8h5.9v5.9h-5.9v-5.9zM115.4 152.8h5.9v5.9h-5.9v-5.9zM168.2 152.8v5.9h-29.3v-5.9h29.3zM68.5 164.5h5.9v5.9h-5.9v-5.9zM80.2 164.5h5.9v5.9h-5.9v-5.9zM91.9 164.5h5.9v5.9h-5.9v-5.9zM103.7 164.5h5.9v5.9h-5.9v-5.9zM115.4 164.5h5.9v5.9h-5.9v-5.9zM168.2 164.5v5.9h-29.3v-5.9h29.3zM80.2 176.3h5.9v5.9h-5.9v-5.9zM91.9 176.3h5.9v5.9h-5.9v-5.9zM103.7 176.3h5.9v5.9h-5.9v-5.9zM115.4 176.3h5.9v5.9h-5.9v-5.9zM168.2 176.3v5.9h-29.3v-5.9h29.3zM80.2 188h5.9v5.9h-5.9V188zM91.9 188h5.9v5.9h-5.9V188zM103.7 188h5.9v5.9h-5.9V188zM115.4 188h5.9v5.9h-5.9V188zM168.2 188v5.9h-29.3V188h29.3zM80.2 199.7h5.9v5.9h-5.9v-5.9zM91.9 199.7h5.9v5.9h-5.9v-5.9zM103.7 199.7h5.9v5.9h-5.9v-5.9zM115.4 199.7h5.9v5.9h-5.9v-5.9zM159.4 199.7v5.9h-20.5v-5.9h20.5zM80.2 211.5h5.9v5.9h-5.9v-5.9zM91.9 211.5h5.9v5.9h-5.9v-5.9zM103.7 211.5h5.9v5.9h-5.9v-5.9zM115.4 211.5h5.9v5.9h-5.9v-5.9zM138.9 211.5h11.7v5.9h-11.7v-5.9z"/></svg>