<svg id="Layer_1" xmlns="http://www.w3.org/2000/svg" viewBox="0 0 612 792"><style>.st0{fill-rule:evenodd;clip-rule:evenodd;}</style><path class="st0" d="M504.1 619.2c-109.8 38.2-285.7 37-397 1-18.3-55-20.7-132.7 16-168 14.6-14.1 37.3-20.7 64-27 20.5-4.9 60.7-7.6 61-29 .1-5.8-11-16.5-16-24-12.1-18.2-18.4-32.6-25-55-3.3-11.1-3.3-22.8-6-34-1.5-6.2-6.8-13.1-8-19-5.1-25.6-.6-63.9 11-84 13.2-22.8 40.2-33.1 76-35 54.7-2.9 107.3.8 127 35 11.4 19.8 17.5 55.2 12 83-1.3 6.5-6.2 11.5-8 19-2 8.4-2.1 17.1-4 25-5.1 21.5-13.8 44.7-24 61-5.6 9-20.2 21.7-20 28 .8 23.3 40.1 23 61 28 43.1 10.3 77.4 26.8 89 70 9.9 37.1 3.2 86.3-9 125zm-164-458c-36.4-2.8-83-4-106 10-19.3 11.8-25.3 36.9-25 65 51.1-22.9 142.6-21.8 194 0 .5-47.8-18.4-71.5-63-75zm-131 92c-.5 7.2 1.7 11.7 4 16 26.1 4 50.7-11.1 79-13 9.5-.6 19-.6 28 0 28.6 1.8 52.5 17 79 13 2.6-3.7 3.5-9.1 4-15-50.3-24.6-142.5-24-194-1zm86 19c-25.9 2.3-49.7 15.4-77 15 4.9 39.5 24 80.8 50 102 24.1 19.7 56.3 17 78-2 25.2-22.1 42-59.1 48-100-33.6-.2-61.3-18.3-99-15zm-59 158c21.7 31.9 46.8 60.5 70 91 22.8-30.5 47.8-58.9 69-91-13-3.7-21.1-12.3-26-24-19.9 17.3-66.4 19-86-1-.1-.6-.1-1.2-1-1-5.1 12.3-13.1 21.6-26 26zm-104 37c-27.5 29.5-24.7 87.6-12 139 103.1 34.3 266.6 33.4 371 1 15.7-49.8 16-119.7-19-147-20.8-16.3-48.1-16.7-78-25-30.2 36.8-57.4 76.6-89 112-29.2-37.4-57.4-75.9-88-112-32.2 7.2-67.2 13-85 32z"/><path class="st0" d="M469.1 518.2v16h-65c-.8-6.8-.3-8.9 0-16h65z"/></svg>
