<svg id="Слой_1" xmlns="http://www.w3.org/2000/svg" viewBox="0 0 235 133.6"><style>.st0{fill:#FFFFFF;}</style><path class="st0" d="M117.4 0h1.3l1.3.1 1.3.1 1.3.2 1.3.2 1.3.3 1.3.3 1.3.3 1.2.4 1.2.4 1.2.5 1.2.5 1.1.5 1.1.6 1.1.6 1.1.7 1.1.7 1 .7 1 .8 1 .8 1 .8.9.9.9.9.9.9.8 1 .8 1 .8 1 .7 1 .7 1.1.7 1.1.6 1.1.6 1.1-.9-.1-.9-.1-.9-.1h-3l-2.1.1-2.2.1-2.2.2-2.3.3-2.3.3-2.4.4-2.4.5-2.4.5-2.4.6-2.4.6-2.4.7-2.4.8-2.4.8V14.7l-1.7.7-1.7.8-1.7.8-1.6.8v28.6l-1.2.2-1.1.2-1.1.2-1.1.1-1.1.1-1.1.1h-3l-.9-.1-.9-.1-.9-.1-.8-.2-.8-.2-.8-.3-.7-.3-.7-.3-.6-.3-.7-.4-.6-.4-.6-.4-.5-.5-.5-.5-.4-.5-.4-.5-.3-.6-.2-.6-.2-.6-.2-.7-.1-.7-.1-.7V36.6l.1-.9.2-.9.3-1 .3-1 .4-1 .5-1 .5-1 .6-1 .6-1 .7-1 .8-1 .8-1 .8-1 .9-1 1-1 1-1 1-1 1.1-.9 1.1-.9 1.1-.9 1.2-.9 1.2-.8 1.3-.8 1.3-.8 1.3-.8 1.3-.8 1.4-.7 1.4-.7 1.4-.7 1.5-.6 1.5-.6V6.8l-2.5 1-2.5 1.1-2.4 1.1-2.4 1.2-2.4 1.2-2.3 1.3-2.5 1.3-2.2 1.3-2.1 1.3-2 1.4-1.9 1.4-1.9 1.4-1.7 1.5-1.7 1.4-1.6 1.5-1.5 1.5.4-1.5.5-1.5.6-1.4.6-1.4.6-1.4.7-1.3.8-1.3.8-1.3.9-1.3.9-1.2 1-1.2 1-1.1 1-1.1 1.1-1 1.1-1 1.2-1 1.2-.9 1.4-.7 1.3-.8 1.3-.8 1.3-.7 1.4-.6 1.4-.6 1.4-.5 1.5-.5 1.5-.4 1.5-.3 1.5-.3 1.6-.2 1.6-.2 1.6-.1 1.5-.1zm37.2 42.8l-.3 1.7-.3 1.7-.4 1.6-.5 1.6-.6 1.6-.6 1.5-.7 1.5-.8 1.5-.8 1.4-.9 1.4-.9 1.3-1 1.3-1.1 1.3-1.1 1.2-1.1 1.2-1.2 1.1-1.3 1.1-1.3 1-1.3.9-1.4.9-1.4.8-1.5.8-1.5.7-1.5.6-1.6.6-1.6.5-1.9.4-1.7.3-1.7.3-1.7.2-1.7.1h-3.3l-1.5-.1-1.4-.1-1.4-.2-1.4-.3-1.4-.3-1.4-.3-1.3-.4-1.3-.4-1.3-.5-1.3-.5-1.3-.6-1.2-.6-1.2-.7-1.2-.7-1.1-.8-1.2-.9-1-.8-1-.9-1-.9-1-1-1-.9-.9-1-.9-1-.8-1.1-.8-1.1-.7-1.2-.7-1.2-.7-1.2-.6-1.3-.6-1.3-.5-1.3 1.5.3 1.5.2 1.6.1h3.5l1.9-.1 1.9-.2 2-.3 2.1-.3 2.1-.4 2.2-.5 2.2-.6 2.3-.6 2.3-.7 2.4-.8 2.4-.8V28.3l1.5-.4 1.5-.3 1.5-.3 1.5-.3 1.5-.3 1.5-.3 1.5-.2 1.5-.2 1.5-.1 1.4-.1 1.4-.1h2.8l1.3.1 1.3.1 1.3.1 1.2.2 1.2.2 1.1.3.8.3 1 .3.9.4.8.4.8.5.7.5.6.5.5.6.5.6.3.7.3.7.1.8.1.8v.8l-.1.8-.1.8-.2.8-.2.8-.3.8-.3.8-.4.8-.4.8-.5.8-.5.8-.5.8-.6.8-.6.8-.7.8-.7.8-.8.8-.8.8-.8.8-.9.8-.9.8-.9.8-.9.8-1 .8-2.1 1.5-2.1 1.5-2.2 1.4-2.3 1.3V30.6l-1.6.4-1.7.5-1.7.5-1.7.6v40.7l6.8-2.6v-9.1l2.1-1 2.1-1 2.1-1.1 2-1.1 2-1.1 1.9-1.2 1.9-1.2 1.8-1.2 1.7-1.3 1.7-1.2 1.6-1.3 1.5-1.3 1.5-1.3 1.4-1.3 1.3-1.3 1.1-.9zM156.2 58.8l4 .3 3.9.3 3.8.3 3.8.4 3.7.4 3.6.4 3.5.5 3.5.5 3.4.5 3.3.5 3.2.6 3.1.6 3 .6 2.9.6 2.8.6 2.6.7 2.5.7 2.4.7 2.3.7 1.1.4 1.1.4 1 .4 1 .4 1 .4.9.4.9.4.9.4.8.4.8.4.8.4.8.4.7.4.7.4.6.4.6.4.6.4.5.4.5.4.5.5.4.4.4.4.3.5.3.4.3.5.2.5-1.2-.7-1.3-.7-1.4-.7-1.5-.7-1.6-.7-1.7-.7-1.8-.7-1.9-.6-2-.6-2-.6-2.1-.6-2.2-.6-2.3-.6-2.4-.6-2.4-.5-2.5-.5-2.6-.5-2.7-.5-2.7-.5-2.8-.5-2.9-.5-2.9-.4-3-.4-3.1-.4-3.1-.4-3.2-.4-3.2-.3-3.3-.3-3.4-.3-3.4-.3-3.4-.3-3.5-.3.3-1.1.3-1.1.2-1.2-.3-.9zm-76.6 4.6l-3.5.3-3.4.3-3.4.3-3.3.2-3.3.3-3.2.3-3.2.4-3.1.4-3.1.4-3 .4-2.9.4-2.9.5-2.8.5-2.7.5-2.7.5-2.6.5-2.5.5-2.4.5-2.4.6-2.3.6-2.2.6-2.2.6-2.1.6-2 .6-1.9.6-1.8.7-1.7.7-1.6.7-1.4.7-1.4.7-1.4.7-1.2.7.2-.5.3-.5.3-.4.3-.5.4-.4.4-.4.5-.5.5-.4.5-.4.6-.4.6-.4.6-.4.6-.5.7-.4.8-.4.7-.5.8-.4.8-.4.9-.4.9-.4.9-.4 1-.4 1-.4 1-.4 1.1-.4 1.1-.4 2.3-.7 2.4-.7 2.5-.7 2.6-.7 2.8-.6 2.9-.6 3-.6 3.1-.6 3.2-.6 3.3-.5 3.4-.5 3.4-.5 3.5-.5 3.6-.4 3.7-.4 3.8-.4 3.8-.3 3.9-.3 4-.3.2 1.2.2 1.2.3 1.1.2 1.1zM18.3 117.9V95.1l.1-.3.1-.3.2-.2.3-.1.3-.1h16v-4.2H16.2l-.4.1h-.3l-.4.1-.3.2-.3.2-.3.2-.2.2-.2.2-.2.3-.3.5-.2.5-.1.4v25l5.3.1zm39.8 0v-4.2H41.8l-.2-.1-.2-.1-.1-.1-.2-.2-.1-.3-.1-.3V105.7h16.7v-4.2H40.9V95l.1-.2.1-.2.1-.2.3-.2.2-.1h.2l.4-.1h15.6v-4.2H38.7l-.5.2-.6.2-.3.1-.3.2-.3.2-.3.2-.2.3-.2.3v.4l-.1.3-.1.4-.2.4v21.8l.1.6.2.6.1.3.2.3.2.3.2.3.2.2.3.2.3.1.3.1.5.1.5.1h1.2l18.2-.1zm15.4-28.4h-2.7l-1.5.1-1.5.2-.8.2-.7.2-.7.3-.7.3-.7.3-.7.4-.6.5-.6.5-.6.5-.5.6-.4.6-.3.7-.3.7-.3.7-.2.7-.2.8-.3 1.5-.1 1.5-.1 1.5v5l.1.8.1.8.1.8.2.8.2.8.3.8.3.7.4.7.4.7.5.7.6.6.6.5.6.5.7.4.7.3.7.3.7.3.8.2.8.2 1.5.2 1.5.1h5.4l1.5-.1 1.5-.2.8-.2.8-.2.7-.3.7-.3.7-.3.6-.4.6-.5.6-.5.4-.5.4-.5.3-.5.3-.6.3-.6.3-.6.2-.6.2-.6.3-1.3.2-1.3.1-1.2.1-1.2v-3.6l-.1-1.5-.1-1.5-.3-1.5-.2-.9-.2-.8-.3-.7-.3-.7-.3-.6-.4-.6-.4-.6-.5-.5-.7-.6-.6-.5-.7-.4-.7-.3-.7-.3-.7-.3-.8-.1-.8-.2-1.5-.2-1.5-.1H73.5zm-9 14.4v-2l.1-.9.1-.8.1-.7.1-.6.2-.6.2-.5.2-.5.3-.4.3-.4.3-.3.3-.4.4-.3.4-.3.4-.3.4-.2.4-.2.5-.2.5-.1 1-.2 1-.1h3.8l1 .1 1 .2.5.1.5.2.5.2.4.2.4.3.4.3.4.3.3.4.3.3.3.4.2.4.2.5.2.5.2.6.1.7.1.7.1.8.1.8v3.8l-.1.8-.1.8-.1.7-.1.6-.2.6-.2.5-.2.5-.2.4-.3.4-.3.3-.3.4-.4.4-.4.3-.4.3-.5.3-.4.2-.5.2-.5.1-1 .2-1 .1H72l-.7-.1-.7-.1-.6-.1-.6-.1-.6-.2-.5-.3-.5-.3-.5-.3-.5-.4-.4-.5-.3-.4-.3-.4-.2-.5-.2-.5-.2-.5-.2-.6-.1-.6-.1-.7-.1-.8-.1-.8v-.9l-.1-.8zm24.7 5.2h14.3V105H89.2v4.1zM123.7 94h.8l.2.1.1.1.1.1.1.1.1.1.1.2v23h5.3V92.9l-.1-.3-.1-.4-.1-.3-.2-.3-.2-.3-.3-.3-.3-.2-.3-.2-.3-.2-.3-.1-.5-.2-.5-.1H108.4l-.5.1-.5.2-.3.1-.2.2-.3.2-.3.2-.2.2-.2.2-.2.2-.1.2-.2.5-.1.5-.1.5v24.8h5.3V95l.1-.3.2-.3.1-.1.1-.1.2-.1h.7l11.8-.1zm15.1 23.9V108H152.6l.6-.1.6-.1.6-.2.5-.2.5-.2.5-.3.4-.3.4-.4.3-.4.3-.4.3-.5.2-.5.2-.5.2-.5.1-.5.2-1.1.1-1.1.1-1v-2.8l-.1-1-.2-1-.3-1-.2-.5-.2-.5-.2-.4-.3-.4-.3-.4-.3-.3-.4-.4-.5-.3-.5-.3-.5-.2-.5-.2-.5-.1-.5-.1-.5-.1H137.1l-.5.1-.6.1-.6.2-.3.1-.3.2-.3.2-.3.2-.2.3-.2.3-.2.3-.1.3-.2.5-.1.5v24.9h5.6zm0-14.2V95.1l.1-.3.2-.3.2-.1.1-.1.2-.1h10.3l.6.1.6.2.3.1.3.1.3.2.3.2.2.3.2.3.1.3.1.3.2.7.1.7v2.7l-.1.7-.2.7-.1.3-.1.3-.2.3-.2.3-.3.2-.3.2-.3.2-.3.1-.6.2-.6.1h-1.2l-9.9-.3zm35.7-14.2h-2.7l-1.5.1-1.5.2-.7.2-.7.2-.7.3-.7.3-.7.3-.7.4-.6.5-.6.5-.5.6-.5.6-.4.6-.3.7-.3.7-.3.7-.2.7-.2.8-.3 1.5-.1 1.5-.1 1.5v5l.1.8.2 1.5.2.8.2.8.3.8.3.7.4.7.4.7.5.7.6.6.6.5.6.5.7.4.7.3.7.3.7.3.7.2.8.2 1.5.2 1.5.1h5.4l1.5-.1 1.5-.2.8-.2.8-.2.7-.3.7-.3.7-.3.7-.4.6-.5.6-.5.4-.5.4-.5.3-.5.3-.6.3-.6.3-.6.2-.6.2-.6.3-1.3.2-1.3.1-1.2.1-1.2v-3.6l-.1-1.5-.1-1.5-.3-1.5-.2-.8-.2-.8-.3-.7-.3-.7-.3-.7-.4-.6-.5-.6-.5-.5-.6-.5-.6-.5-.7-.4-.7-.3-.7-.3-.7-.3-.8-.2-.8-.2-1.5-.2-1.5-.1h-2.7zm-9 14.4v-2l.1-.9.1-.8.1-.7.1-.6.2-.6.2-.5.2-.5.2-.4.3-.4.3-.3.4-.4.4-.3.4-.3.4-.3.4-.2.4-.2.5-.2.5-.1 1-.2 1-.1h3.8l1 .1 1 .2.5.1.5.2.5.2.4.2.4.3.4.3.4.3.3.4.3.3.3.4.2.4.2.5.2.5.1.6.1.7.1.7.1.8.1.8v3.8l-.1.8-.1.8-.1.7-.1.6-.1.6-.2.5-.2.5-.2.4-.3.4-.3.3-.3.4-.4.4-.4.3-.4.3-.9.4-.5.2-.5.1-1 .2-1 .1H173l-.7-.1-.7-.1-.6-.1-.6-.1-.6-.2-.5-.3-.5-.3-.5-.3-.5-.4-.4-.5-.3-.4-.3-.4-.3-.5-.2-.5-.2-.5-.2-.6-.1-.6-.1-.7-.1-.8-.1-.8v-1.6zm39.1-14.1v2.3h-6l-.9.1-.8.1-.8.1-.7.2-.7.3-.6.3-.6.4-.5.4-.5.5-.5.6-.4.6-.3.6-.3.7-.2.7-.2.7-.2.7-.1.7-.1.7-.1 1.5v3l.1 1.5.1.7.1.7.1.7.2.7.2.7.3.7.3.6.3.6.4.6.5.6.5.5.6.4.6.3.6.3.7.2.7.2.8.1.8.1h6.6v2.7h5.3v-2.7h6.6l.8-.1.8-.1.7-.2.7-.2.6-.3.6-.3.6-.4.5-.5.5-.6.4-.6.3-.6.3-.6.2-.7.2-.7.3-1.4.2-1.5.1-1.5v-3l-.1-1.5-.1-.7-.1-.7-.1-.7-.2-.7-.2-.7-.3-.7-.3-.6-.4-.6-.5-.6-.5-.5-.5-.4-.6-.4-.6-.3-.7-.3-.7-.2-.8-.1-.8-.1-.9-.1h-6v-2.3h-5.3zm0 21.1h-4l-.9-.1-.8-.2-.4-.1-.4-.2-.4-.2-.3-.3-.3-.3-.3-.3-.3-.4-.2-.5-.1-.1-.1-.2-.1-.2-.1-.3-.1-.3-.1-.3-.1-.4-.1-.5v-4.7l.1-.5.1-.5.1-.4.1-.3.1-.3.1-.3.1-.2.1-.2.1-.2.3-.5.3-.4.4-.3.4-.3.4-.2.4-.2.5-.1.5-.1 1-.1h4.1l-.1 14.7zm5.3 0V96.3h4.1l1 .1.5.1.5.1.4.2.4.2.4.3.3.3.3.4.3.5.2.5.2.6.1.3.1.4.1.4v5.4l-.1.4v.4l-.1.3-.1.5-.2.4-.2.5-.3.4-.3.3-.3.3-.3.3-.4.2-.4.2-.4.1-.8.2-.9.1h-1.6l-2.5.2zM15.9 130.5h35v.2h-35zM184 130.5h35v.2h-35zM59.8 127.5v2.5c0 .9 0 1.7-.1 2.5.3-.6.7-1.3 1.1-2l1.9-3.1h.8v5.9h-.7v-2.5c0-1 0-1.7.1-2.4-.3.6-.7 1.3-1.1 2l-1.9 2.9h-.8v-5.9h.7zM66.3 127.5v2.5h2.9v-2.5h.8v5.9h-.8v-2.8h-2.9v2.8h-.8v-5.9h.8zM72.4 127.5l1.8 2.6h.2v-2.6h.8v2.6h.2l1.8-2.6h.9l-2.1 2.7c.9.1 1.3.7 1.6 1.5.2.6.3 1.1.6 1.7h-.8c-.2-.4-.3-1-.5-1.4-.3-.8-.6-1.3-1.5-1.3h-.3v2.7h-.8v-2.7H74c-1 0-1.3.5-1.5 1.3-.1.4-.3 1-.5 1.4h-.8c.3-.6.4-1.1.6-1.7.3-.8.7-1.4 1.6-1.5l-2.1-2.7h1.1zM82.9 130.7h-2.3v2.1h2.6v.6h-3.3v-5.9H83v.6h-2.4v1.9h2.3v.7zM85.6 127.5v2.5h2.9v-2.5h.8v5.9h-.8v-2.8h-2.9v2.8h-.8v-5.9h.8zM94.4 130.7h-2.3v2.1h2.6v.6h-3.3v-5.9h3.2v.6h-2.4v1.9h2.3l-.1.7zM96.4 127.6c.4-.1.8-.1 1.5-.1.8 0 1.3.2 1.7.5.3.3.5.7.5 1.2s-.2 1-.5 1.3c-.4.4-1.1.6-1.8.6-.2 0-.4 0-.6-.1v2.4h-.8v-5.8zm.7 2.9c.2 0 .4.1.6.1.9 0 1.5-.4 1.5-1.3 0-.8-.6-1.2-1.4-1.2-.3 0-.6 0-.7.1v2.3zM102.5 127.5v2.5h2.9v-2.5h.8v5.9h-.8v-2.8h-2.9v2.8h-.8v-5.9h.8zM109 127.5v2.2h.7c1.2 0 2.3.5 2.3 1.9 0 .6-.2 1-.5 1.3-.5.5-1.3.7-2.1.7-.5 0-.9 0-1.2-.1v-5.9h.8zm0 5.4h.6c.8 0 1.6-.4 1.6-1.3s-.8-1.3-1.6-1.3h-.6v2.6zm4.4-5.4v5.9h-.8v-5.9h.8zM118.6 130.7h-2.3v2.1h2.6v.6h-3.3v-5.9h3.2v.6h-2.4v1.9h2.3l-.1.7zM123.9 127.5v2.5c0 .9 0 1.7-.1 2.5.3-.6.7-1.3 1.1-2l1.9-3.1h.8v5.9h-.7v-2.5c0-1 0-1.7.1-2.4-.3.6-.7 1.3-1.1 2l-1.9 2.9h-.8v-5.9h.7zM129.5 127.9c.4-.3.9-.4 1.6-.4 1 0 1.7.5 1.7 1.5 0 .7-.5 1.3-1.2 1.4.8.1 1.4.6 1.4 1.5 0 1.2-1.1 1.7-2.2 1.7-.5 0-1.1-.1-1.5-.4l.2-.6c.3.2.8.4 1.3.4.9 0 1.4-.5 1.4-1.1 0-.9-.8-1.1-1.6-1.1h-.3v-.6h.3c.8 0 1.4-.5 1.4-1.1 0-.6-.4-.9-1.1-.9-.4 0-.9.2-1.2.4l-.2-.7zM135.5 127.5v2.2h.7c1.2 0 2.3.5 2.3 1.9 0 .6-.2 1-.5 1.3-.5.5-1.3.7-2.1.7-.5 0-.9 0-1.2-.1v-5.9h.8zm0 5.4h.6c.8 0 1.6-.4 1.6-1.3s-.8-1.3-1.6-1.3h-.6v2.6zm4.4-5.4v5.9h-.8v-5.9h.8zM146.2 133.3c-.3.1-.8.3-1.6.3-1.7 0-2.9-1-2.9-3 0-1.9 1.3-3.1 3.1-3.1.7 0 1.2.2 1.4.3l-.2.6c-.3-.1-.7-.2-1.2-.2-1.4 0-2.3.9-2.3 2.4s.8 2.4 2.3 2.4c.5 0 .9-.1 1.3-.2l.1.5zM148.6 127.5v2.6h.2l2-2.6h.9l-2.2 2.7c1 .1 1.4.7 1.7 1.5.2.6.4 1.2.6 1.7h-.8c-.2-.4-.4-.9-.5-1.4-.3-.8-.6-1.3-1.7-1.3h-.2v2.7h-.8v-5.9h.8zM154.4 131.6l-.6 1.9h-.8l2-5.9h.9l2 5.9h-.8l-.6-1.9h-2.1zm1.9-.6l-.6-1.7c-.1-.4-.2-.7-.3-1.1-.1.3-.2.7-.3 1.1l-.6 1.7h1.8zM160.3 127.5v2.5h2.9v-2.5h.8v5.9h-.8v-2.8h-2.9v2.8h-.8v-5.9h.8zM166.7 127.5v2.5c0 .9 0 1.7-.1 2.5.3-.6.7-1.3 1.1-2l1.9-3.1h.8v5.9h-.7v-2.5c0-1 0-1.7.1-2.4-.3.6-.7 1.3-1.1 2l-1.9 2.9h-.8v-5.9h.7zM172 133.5c.1-.2.2-.3.2-.5.3-.7.4-1.5.9-2 .1-.1.3-.2.5-.3-.7-.1-1.3-.6-1.3-1.5 0-.5.2-.9.6-1.2.4-.3 1-.5 1.7-.5.5 0 1 0 1.4.1v5.9h-.8v-2.6h-.6c-.4 0-.6.1-.8.3-.4.4-.6 1.3-.8 1.8-.1.1-.1.3-.2.4l-.8.1zm3.2-5.4c-.1 0-.4-.1-.7-.1-.8 0-1.4.3-1.4 1.1 0 .7.6 1.1 1.5 1.1h.6v-2.1z"/></svg>