<?xml version="1.0" encoding="utf-8"?>
<!-- Generator: Adobe Illustrator 21.1.0, SVG Export Plug-In . SVG Version: 6.00 Build 0)  -->
<svg version="1.1" id="Calque_1" xmlns="http://www.w3.org/2000/svg" xmlns:xlink="http://www.w3.org/1999/xlink" x="0px" y="0px"
	 viewBox="0 0 210 210" style="enable-background:new 0 0 210 210;" xml:space="preserve">
<style type="text/css">
	.st0{fill:none;stroke:#FEFDFD;stroke-width:2;stroke-miterlimit:10;}
	.st1{fill:#FFFFFF;}
</style>
<circle class="st0" cx="105" cy="105" r="104"/>
<g>
	<path class="st1" d="M67.1,8.5L67.1,8.5L67.1,8.5C68,8.2,69,7.9,69.9,7.6l0,0C68.9,7.9,68,8.2,67.1,8.5z"/>
	<path class="st1" d="M69.9,7.6c-1,0.4-2,0.7-2.9,1.1l0,0C67.9,8.3,68.9,7.9,69.9,7.6L69.9,7.6z"/>
	<path class="st1" d="M111.8,208.8c-1.4,0.1-2.7,0.1-4.1,0.2c-0.1,0-0.1,0-0.2,0c1.2,0,2.4-0.1,3.6-0.1L111.8,208.8 M107.1,209
		c-6.8,0-13.6-0.8-20.2-2.4c-0.1,0-0.2,0-0.3,0c6.6,1.6,13.5,2.4,20.3,2.4C107,209,107,209,107.1,209 M86.2,206.4
		c-6.6-1.7-13-4.2-19.2-7.4c-0.1,0-0.2,0-0.3,0c6.2,3.2,12.6,5.7,19.2,7.4C86,206.4,86.1,206.4,86.2,206.4 M66.4,198.7
		c-6.1-3.3-11.9-7.3-17.3-12c-0.1,0-0.3,0-0.4,0c5.4,4.7,11.2,8.7,17.4,12C66.2,198.7,66.3,198.7,66.4,198.7 M48.5,186.2
		c-6-5.3-11.5-11.5-16.3-18.5c-0.1,0-0.3,0-0.4,0c4.8,7,10.3,13.2,16.3,18.5C48.3,186.2,48.4,186.2,48.5,186.2 M31.8,167
		c-4.7-7-8.8-14.8-12-23.3c-0.2,0-0.3,0-0.5,0c3.2,8.5,7.2,16.3,12,23.3C31.5,167.1,31.7,167.1,31.8,167 M19.6,143
		c-0.1-0.2-0.1-0.3-0.2-0.5c-3-8.4-5-16.9-6.1-25.5c-0.1,0-0.3,0-0.4,0c1,8.5,3,17.1,6,25.5c0.1,0.2,0.1,0.3,0.2,0.5
		C19.3,143,19.4,143,19.6,143 M13.3,116.2c-1-8.7-1-17.4-0.1-25.9c-0.1,0-0.3,0-0.4,0c-0.9,8.5-0.9,17.2,0,25.9
		C13,116.3,13.1,116.2,13.3,116.2 M13.3,89.6c1-8.5,2.9-16.7,5.6-24.6c-0.1,0-0.2,0-0.3,0c-2.8,7.9-4.7,16.1-5.7,24.6
		C13,89.6,13.1,89.6,13.3,89.6 M19.1,64.3C21.9,56.5,25.5,49,30,42.2c-0.1,0-0.2,0-0.2,0c-4.5,6.8-8.1,14.3-11,22.1
		C18.9,64.3,19,64.3,19.1,64.3 M30.4,41.6c4.5-6.8,9.7-13,15.7-18.4H46c-6,5.4-11.3,11.6-15.8,18.4C30.2,41.6,30.3,41.6,30.4,41.6
		 M46.6,22.7c6-5.4,12.7-10,20.1-13.6l0,0c-7.4,3.6-14.1,8.2-20.2,13.6C46.5,22.7,46.6,22.7,46.6,22.7 M67.3,8.8
		C68.1,8.4,69,8,69.9,7.6C69,8,68.2,8.4,67.3,8.8L67.3,8.8"/>
	<path class="st1" d="M128.1,206.4c-3.8,0.9-7.7,1.2-11.7,1.1c-0.1,0-0.2,0-0.2,0.1c3.9,0.1,7.8-0.2,11.7-1.1L128.1,206.4
		 M116,207.5c-5.1-0.3-10.3-1.4-15.4-3.2c-0.1,0-0.3,0.1-0.4,0.1c5.1,1.9,10.4,3,15.5,3.2C115.8,207.5,115.9,207.5,116,207.5
		 M100.1,204c-5.1-1.9-10.1-4.7-15-8.1c-0.2,0-0.3,0.1-0.5,0.1c4.9,3.4,10,6.1,15.1,8.1C99.8,204.1,99.9,204.1,100.1,204
		 M84.5,195.6c-4.9-3.5-9.6-7.7-14.1-12.6c-0.2,0-0.4,0.1-0.6,0.1c4.5,4.9,9.2,9.1,14.2,12.5C84.2,195.7,84.4,195.6,84.5,195.6
		 M70,182.5c-5-5.5-9.7-11.8-13.9-18.9c-0.2,0.1-0.4,0.1-0.7,0.2c4.2,7.1,8.9,13.4,13.9,18.9C69.6,182.6,69.8,182.6,70,182.5
		 M55.8,163c-4.2-7.1-7.9-15-11.1-23.4c-0.2,0.1-0.5,0.1-0.7,0.2c3.1,8.5,6.9,16.3,11.1,23.4C55.3,163.1,55.6,163,55.8,163
		 M44.4,138.8c-0.1-0.2-0.1-0.3-0.2-0.5c-3-8.4-5.3-16.9-6.8-25.3c-0.2,0.1-0.5,0.1-0.7,0.2c1.5,8.5,3.8,17,6.8,25.3
		c0.1,0.2,0.1,0.3,0.2,0.5C44,138.9,44.2,138.8,44.4,138.8 M37.3,112.2c-1.5-8.6-2.3-17.2-2.4-25.5c-0.2,0-0.4,0.1-0.6,0.1
		c0.1,8.3,0.8,16.9,2.3,25.5C36.8,112.3,37,112.2,37.3,112.2 M34.9,85.9c0-8.3,0.6-16.3,2-24c-0.2,0-0.3,0.1-0.5,0.1
		c-1.4,7.6-2.1,15.7-2.1,24C34.4,86,34.7,86,34.9,85.9 M37,61.3c1.4-7.6,3.5-14.8,6.2-21.3c-0.1,0-0.2,0.1-0.4,0.1
		c-2.7,6.6-4.9,13.7-6.3,21.3C36.6,61.4,36.8,61.3,37,61.3 M43.4,39.4c2.7-6.5,6.1-12.4,10.1-17.5c-0.1,0-0.1,0-0.2,0
		c-4,5.1-7.5,11-10.2,17.5C43.1,39.4,43.2,39.4,43.4,39.4 M53.8,21.4c4-5,8.6-9.3,13.8-12.5l0,0c-5.2,3.3-9.9,7.5-14,12.6
		C53.7,21.5,53.7,21.5,53.8,21.4 M68.1,8.6c0.6-0.4,1.2-0.7,1.8-1.1C69.3,7.9,68.7,8.3,68.1,8.6L68.1,8.6"/>
	<path class="st1" d="M135.4,204.5c-2.3,0.7-4.8,0.6-7.4-0.1c-0.1,0-0.2,0.1-0.3,0.1c2.7,0.7,5.2,0.8,7.5,0.1L135.4,204.5
		 M127.8,204.3c-2.8-0.9-5.8-2.6-8.9-5c-0.2,0-0.3,0.1-0.5,0.1c3.1,2.4,6.2,4.1,9.1,4.9C127.6,204.3,127.7,204.3,127.8,204.3
		 M118.5,199c-3.1-2.5-6.3-5.7-9.5-9.6c-0.2,0.1-0.4,0.1-0.6,0.2c3.3,3.9,6.5,7.1,9.7,9.6C118.2,199.1,118.4,199.1,118.5,199
		 M108.7,189c-3.2-3.9-6.5-8.5-9.7-13.7c-0.2,0.1-0.5,0.1-0.7,0.2c3.3,5.2,6.6,9.8,9.8,13.7C108.2,189.2,108.5,189.1,108.7,189
		 M98.6,174.8c-3.6-5.9-7.2-12.5-10.7-19.8c-0.3,0.1-0.5,0.2-0.8,0.3c3.5,7.3,7.1,13.9,10.8,19.7C98.1,174.9,98.3,174.8,98.6,174.8
		 M87.6,154.3c-3.5-7.3-6.8-15.3-9.9-23.8c-0.3,0.1-0.6,0.2-0.8,0.3c3.1,8.5,6.4,16.4,9.9,23.8C87.1,154.5,87.3,154.4,87.6,154.3
		 M77.4,129.8c-0.1-0.2-0.1-0.3-0.2-0.5c-3-8.4-5.7-16.8-7.9-25.1c-0.3,0.1-0.5,0.2-0.8,0.3c2.2,8.3,4.8,16.7,7.9,25.1
		c0.1,0.2,0.1,0.3,0.2,0.5C76.9,130,77.2,129.9,77.4,129.8 M69.2,103.5c-2.2-8.4-4.1-16.7-5.5-24.6c-0.2,0.1-0.5,0.2-0.7,0.2
		c1.4,8,3.2,16.2,5.4,24.7C68.6,103.7,68.9,103.6,69.2,103.5 M63.6,78.1c-1.4-7.9-2.3-15.5-2.8-22.7c-0.2,0.1-0.4,0.1-0.6,0.2
		c0.5,7.1,1.4,14.8,2.7,22.7C63.1,78.3,63.3,78.2,63.6,78.1 M60.7,54.8c-0.5-7.1-0.5-13.7-0.1-19.6c-0.1,0-0.3,0.1-0.4,0.1
		c-0.5,5.9-0.5,12.5,0,19.6C60.3,55,60.5,54.9,60.7,54.8 M60.6,34.7c0.4-5.9,1.3-11.1,2.7-15.5c-0.1,0-0.2,0.1-0.3,0.1
		c-1.4,4.4-2.4,9.6-2.8,15.5C60.3,34.8,60.5,34.7,60.6,34.7 M63.4,18.8c1.4-4.3,3.2-7.8,5.5-10.3l0,0c-2.4,2.5-4.3,6-5.7,10.3
		C63.2,18.9,63.3,18.9,63.4,18.8"/>
	<path class="st1" d="M69.1,8.4c0.3-0.3,0.5-0.5,0.8-0.8C69.6,7.8,69.3,8.1,69.1,8.4L69.1,8.4"/>
	<path class="st1" d="M141,202.6c0.3-0.1,0.4-1,0.1-2.7c-0.1,0-0.2,0.1-0.3,0.1c0.3,1.6,0.3,2.5,0.1,2.6H141 M141,199.8
		c-0.3-1.7-0.8-4.2-1.7-7.4c-0.2,0.1-0.3,0.1-0.5,0.2c0.9,3.2,1.5,5.7,1.9,7.4C140.8,199.9,140.9,199.8,141,199.8 M139.3,192
		c-0.9-3.2-2-7.2-3.4-11.7c-0.2,0.1-0.4,0.2-0.6,0.2c1.4,4.5,2.6,8.4,3.5,11.6C138.9,192.1,139.1,192.1,139.3,192 M135.8,179.9
		c-1.4-4.6-3-9.7-4.9-15.4c-0.3,0.1-0.5,0.2-0.8,0.3c1.9,5.7,3.6,10.8,5,15.3C135.3,180,135.6,180,135.8,179.9 M130.7,163.9
		c-2.1-6.4-4.5-13.4-7.1-21c-0.3,0.1-0.6,0.2-0.9,0.3c2.6,7.6,5,14.6,7.2,21C130.2,164.1,130.5,164,130.7,163.9 M123.4,142.2
		c-2.6-7.6-5.5-15.7-8.5-24.2c-0.3,0.1-0.6,0.2-0.9,0.3c3.1,8.5,5.9,16.6,8.6,24.2C122.8,142.4,123.1,142.3,123.4,142.2
		 M114.6,117.3c-0.1-0.2-0.1-0.3-0.2-0.5c-3-8.4-6.1-16.7-9.1-24.7c-0.3,0.1-0.6,0.2-0.9,0.3c3,8,6,16.3,9,24.7
		c0.1,0.2,0.1,0.3,0.2,0.5C114,117.5,114.3,117.4,114.6,117.3 M105.1,91.4c-3-8.1-6.1-16-8.9-23.5c-0.3,0.1-0.5,0.2-0.8,0.3
		c2.9,7.5,5.8,15.3,8.9,23.5C104.5,91.6,104.8,91.5,105.1,91.4 M95.9,67.2c-2.9-7.4-5.7-14.4-8.3-20.8c-0.2,0.1-0.4,0.2-0.6,0.2
		c2.6,6.4,5.3,13.4,8.1,20.9C95.4,67.4,95.6,67.3,95.9,67.2 M87.4,45.8c-2.6-6.4-5-12.2-7.2-17.2c-0.2,0.1-0.3,0.1-0.5,0.2
		c2.1,5.1,4.5,10.9,7,17.3C87,46,87.2,45.9,87.4,45.8 M80,28.1c-2.2-5-4.1-9.3-5.7-12.6c-0.1,0-0.2,0.1-0.3,0.1
		c1.6,3.4,3.4,7.7,5.5,12.7C79.7,28.3,79.8,28.2,80,28.1 M74.1,15.2c-1.6-3.3-2.9-5.7-3.9-7.1l0,0c0.9,1.4,2.1,3.8,3.6,7.2
		C74,15.3,74.1,15.2,74.1,15.2 M70.2,8c-0.1-0.2-0.2-0.3-0.3-0.4C70,7.7,70.1,7.8,70.2,8L70.2,8"/>
	<path class="st1" d="M147.1,200.1c2.6-1.2,5-3,7-5.4c-0.1,0-0.2,0.1-0.3,0.1c-2,2.3-4.3,4.1-6.9,5.3H147.1 M154.3,194.5
		c2.3-2.8,4.2-6.3,5.6-10.3c-0.2,0.1-0.3,0.1-0.5,0.2c-1.4,4.1-3.2,7.5-5.4,10.3C154.1,194.5,154.2,194.5,154.3,194.5 M160,183.7
		c1.4-4.1,2.3-8.9,2.8-14.2c-0.2,0.1-0.4,0.2-0.6,0.3c-0.4,5.2-1.3,10-2.7,14.1C159.7,183.8,159.9,183.8,160,183.7 M162.9,169
		c0.5-5.3,0.5-11.1,0-17.3c-0.2,0.1-0.5,0.2-0.7,0.3c0.5,6.2,0.5,12,0.1,17.3C162.5,169.2,162.7,169.1,162.9,169 M162.9,151
		c-0.6-7-1.7-14.5-3.5-22.4c-0.3,0.1-0.5,0.2-0.8,0.4c1.8,7.9,3,15.4,3.5,22.4C162.4,151.2,162.6,151.1,162.9,151 M159.2,127.9
		c-1.8-7.9-4.2-16.2-7.2-24.7c-0.3,0.1-0.6,0.2-0.8,0.4c3,8.5,5.4,16.8,7.2,24.7C158.7,128.1,159,128,159.2,127.9 M151.7,102.4
		c-0.1-0.2-0.1-0.3-0.2-0.5c-3-8.4-6.5-16.5-10.2-24.2c-0.3,0.1-0.5,0.2-0.8,0.4c3.7,7.7,7.2,15.8,10.2,24.2
		c0.1,0.2,0.1,0.3,0.2,0.5C151.2,102.6,151.5,102.5,151.7,102.4 M141,77c-3.9-7.8-8-15.2-12.4-22.1c-0.2,0.1-0.5,0.2-0.7,0.3
		c4.3,6.9,8.5,14.3,12.3,22.1C140.5,77.2,140.7,77.1,141,77 M128.2,54.3c-4.4-6.8-9-13.1-13.7-18.6c-0.2,0.1-0.4,0.2-0.6,0.3
		c4.6,5.6,9.2,11.9,13.6,18.7C127.7,54.5,128,54.4,128.2,54.3 M114.1,35.1c-4.7-5.5-9.5-10.4-14.2-14.4c-0.1,0.1-0.3,0.1-0.4,0.2
		c4.7,4,9.4,8.9,14.1,14.5C113.7,35.3,113.9,35.2,114.1,35.1 M99.4,20.4c-4.8-4-9.5-7.1-14.1-9.3c-0.1,0-0.2,0.1-0.2,0.1
		c4.5,2.2,9.2,5.4,13.9,9.4C99.1,20.5,99.3,20.4,99.4,20.4 M84.9,10.9c-4.6-2.1-9-3.3-13.2-3.4l0,0c4.1,0.1,8.5,1.3,13,3.4
		C84.7,11,84.8,10.9,84.9,10.9"/>
	<path class="st1" d="M71.3,7.5c-0.5,0-1,0-1.4,0l0,0C70.4,7.6,70.8,7.5,71.3,7.5L71.3,7.5"/>
	<path class="st1" d="M157.7,194.7c2.4-1.5,4.6-3.1,6.8-4.9c-0.1,0-0.1,0.1-0.2,0.1c-2.1,1.8-4.4,3.5-6.8,5L157.7,194.7
		 M164.9,189.4c4.3-3.8,8.1-8.2,11.3-13.1c-0.1,0.1-0.2,0.1-0.3,0.2c-3.2,4.9-6.9,9.3-11.2,13.1
		C164.7,189.4,164.8,189.4,164.9,189.4 M176.5,175.7c3.2-5,5.8-10.5,7.7-16.5c-0.1,0.1-0.3,0.1-0.4,0.2c-1.9,6-4.5,11.5-7.6,16.5
		C176.3,175.8,176.4,175.8,176.5,175.7 M184.4,158.6c1.9-6,3.2-12.4,3.8-19.2c-0.2,0.1-0.3,0.2-0.5,0.3c-0.6,6.7-1.9,13.2-3.8,19.2
		C184.2,158.8,184.3,158.7,184.4,158.6 M188.4,138.7c0.7-7.6,0.5-15.6-0.6-23.8c-0.2,0.1-0.4,0.2-0.5,0.3c1.1,8.2,1.3,16.2,0.7,23.8
		C188,138.9,188.2,138.8,188.4,138.7 M187.7,114.2c-1.1-8.2-3.2-16.7-6.2-25.3c-0.2,0.1-0.4,0.2-0.6,0.3c3,8.5,5,17,6.2,25.2
		C187.3,114.4,187.5,114.3,187.7,114.2 M181.2,88.1c-0.1-0.2-0.1-0.3-0.2-0.5c-3-8.4-6.8-16.3-11.1-23.7c-0.2,0.1-0.4,0.2-0.5,0.3
		c4.4,7.4,8.1,15.4,11.1,23.7c0.1,0.2,0.1,0.3,0.2,0.5C180.9,88.3,181,88.2,181.2,88.1 M169.5,63.2c-4.5-7.5-9.6-14.5-15.2-20.8
		c-0.2,0.1-0.3,0.2-0.5,0.3c5.5,6.3,10.6,13.3,15.1,20.8C169.1,63.4,169.3,63.3,169.5,63.2 M153.8,41.9c-5.6-6.2-11.6-11.8-18-16.6
		c-0.1,0.1-0.3,0.1-0.4,0.2c6.3,4.8,12.3,10.4,17.9,16.6C153.5,42.1,153.7,42,153.8,41.9 M135.3,24.9c-6.4-4.7-13-8.7-19.9-11.7
		c-0.1,0.1-0.2,0.1-0.3,0.2c6.8,3,13.4,7,19.7,11.7C135,25,135.1,25,135.3,24.9 M114.8,12.9c-6.8-3-13.8-5-20.7-6.1
		c-0.1,0-0.1,0.1-0.2,0.1c6.9,1.1,13.8,3.2,20.6,6.1C114.6,13,114.7,13,114.8,12.9 M93.4,6.8c-6.9-1-13.9-0.9-20.6,0.2l0,0
		C79.5,5.9,86.4,5.8,93.4,6.8C93.3,6.8,93.4,6.8,93.4,6.8 M72.2,7.1c-0.8,0.1-1.5,0.3-2.3,0.5C70.7,7.4,71.4,7.3,72.2,7.1L72.2,7.1"
		/>
	<path class="st1" d="M173.9,183c4.5-4,8.5-8.3,12.1-13.1l-0.1,0.1c-3.7,4.9-7.9,9.5-12.6,13.5L173.9,183 M186.4,169.4
		c4.2-5.7,7.8-11.9,10.7-18.4c-0.1,0.1-0.1,0.1-0.2,0.2c-2.8,6.5-6.4,12.7-10.6,18.4C186.3,169.5,186.3,169.4,186.4,169.4
		 M197.3,150.3c2.8-6.6,4.9-13.5,6.2-20.7c-0.1,0.1-0.2,0.1-0.2,0.2c-1.3,7.2-3.3,14.1-6.1,20.7
		C197.2,150.4,197.2,150.4,197.3,150.3 M203.6,128.9c1.4-8.1,1.8-16.4,1.1-24.9c-0.1,0.1-0.2,0.1-0.3,0.2c0.7,8.5,0.3,16.8-1.1,24.9
		C203.4,129,203.5,129,203.6,128.9 M204.6,103.2c-0.7-8.5-2.6-17.1-5.5-25.7c-0.1,0.1-0.2,0.2-0.3,0.2c3,8.6,4.8,17.2,5.5,25.7
		C204.4,103.4,204.5,103.3,204.6,103.2 M198.8,76.8c-0.1-0.2-0.1-0.3-0.2-0.5c-3-8.4-7-16.2-11.7-23.4c-0.1,0.1-0.2,0.1-0.3,0.2
		c4.7,7.2,8.7,15,11.7,23.4c0.1,0.2,0.1,0.3,0.2,0.5C198.6,76.9,198.7,76.9,198.8,76.8 M186.5,52.2c-4.9-7.3-10.5-13.9-16.8-19.7
		c-0.1,0.1-0.2,0.1-0.2,0.2c6.3,5.8,11.9,12.4,16.8,19.7C186.3,52.4,186.4,52.3,186.5,52.2 M169.1,32c-6.3-5.8-13.2-10.8-20.6-14.9
		c-0.1,0.1-0.1,0.1-0.2,0.2c7.3,4.1,14.2,9.2,20.5,14.9C169,32.1,169.1,32.1,169.1,32 M147.9,16.7c-7.4-4.1-15.2-7.3-23.2-9.5
		l-0.1,0.1c8,2.3,15.8,5.5,23.1,9.6C147.8,16.8,147.8,16.8,147.9,16.7 M124,7c-8.1-2.2-16.3-3.4-24.7-3.5c0,0-0.1,0-0.1,0.1
		c8.3,0.2,16.6,1.4,24.6,3.6C123.9,7.1,123.9,7,124,7 M98.5,3.5c-8.4-0.1-16.8,0.9-25.1,3.1l0,0C81.7,4.4,90.1,3.4,98.5,3.5
		L98.5,3.5 M72.7,6.8c-0.9,0.3-1.9,0.5-2.8,0.8C70.8,7.3,71.8,7,72.7,6.8L72.7,6.8"/>
	<path class="st1" d="M150,11c-7.3-3.4-15.1-6-23.1-7.7c0,0,0,0,0,0.1C135,5.1,142.7,7.7,150,11C150.1,11.1,150,11.1,150,11z"/>
	<path class="st1" d="M69.9,7.6c1-0.4,2-0.7,3-1l0,0C71.9,6.9,70.9,7.2,69.9,7.6z"/>
	<path class="st1" d="M73.7,6.3L73.7,6.3c8.7-2.8,17.4-4.4,26.1-4.9l0,0C91.1,1.9,82.3,3.5,73.7,6.3z"/>
	<path class="st1" d="M125.5,3.1c-8.1-1.6-16.5-2.2-24.9-1.7l0,0c8.7-0.4,17.3,0.2,25.7,1.9l0,0C126,3.2,125.7,3.1,125.5,3.1z"/>
	<path class="st1" d="M73.3,6.2c0.2,0,0.3,0,0.3,0.1l0,0c0,0.1,0,0.2-0.2,0.3l0,0C73.3,6.7,73,6.9,72.7,7l0,0
		c-0.3,0.2-0.7,0.3-1.1,0.5l0,0c-0.1,0-0.1,0-0.2,0.1c-0.4,0.2-0.8,0.3-1.2,0.5l0,0c-0.5,0.2-0.9,0.3-1.4,0.5l0,0
		c-0.4,0.1-0.9,0.2-1.2,0.3l0,0C67.2,9,66.9,9,66.7,9.1l0,0h-0.1c-0.2,0-0.3,0-0.3-0.1l0,0c-0.1-0.1,0-0.1,0.1-0.3l0,0
		c0.1-0.1,0.3-0.2,0.6-0.4c0.2-0.1,0.4-0.1,0.6-0.2c-0.2,0.1-0.4,0.2-0.5,0.3l0,0C67,8.5,67,8.6,67,8.6l0,0c0,0,0.1,0.1,0.3,0.1h0.1
		l0,0c0.2,0,0.4-0.1,0.7-0.1l0,0c0.3-0.1,0.6-0.2,1-0.3l0,0c0.4-0.1,0.7-0.2,1.1-0.4l0,0c0.3-0.1,0.6-0.2,1-0.4c0,0,0.1,0,0.1-0.1
		l0,0c0.3-0.1,0.6-0.3,0.9-0.4l0,0c0.2-0.1,0.4-0.2,0.5-0.3l0,0c0.1-0.1,0.2-0.2,0.1-0.2l0,0c0,0-0.1-0.1-0.3-0.1
		C72.8,6.4,73.1,6.3,73.3,6.2"/>
	<path class="st1" d="M100.6,1.3L100.6,1.3c-0.1-0.1-0.1-0.2-0.2-0.2c-0.3,0-0.5,0-0.8,0h-0.1c0.1,0.1,0.2,0.2,0.3,0.2l0,0
		c0.2,0.5-0.2,1.2-1.2,2.1c0,0-0.1,0-0.1,0.1c-1.1,0.9-2.8,2-5,3.2c-0.1,0-0.1,0.1-0.2,0.1c-2.3,1.2-5.1,2.6-8.4,4
		c-0.1,0-0.2,0.1-0.2,0.1c-0.4,0.2-0.9,0.4-1.3,0.6c-3,1.3-6.1,2.5-9.2,3.7c-0.1,0-0.2,0.1-0.3,0.1c-3.6,1.3-7.1,2.5-10.5,3.5
		c-0.1,0-0.2,0-0.2,0.1c-3.4,1-6.5,1.9-9.3,2.5c-0.1,0-0.1,0-0.2,0c-2.8,0.6-5.2,1-7,1.2h-0.1c-0.3,0-0.6,0-0.9,0
		c-1.3,0-2.1-0.2-2.5-0.5l0,0c-0.2-0.2-0.2-0.5-0.1-0.8l0,0c-0.1,0.2-0.3,0.3-0.5,0.4c0,0-0.1,0-0.1,0.1c-0.1,0.3-0.1,0.5,0.1,0.7
		l0,0c0.3,0.3,1.2,0.5,2.5,0.5c0.3,0,0.6,0,0.9,0h0.1c1.9-0.1,4.3-0.6,7.2-1.2c0.1,0,0.1,0,0.2,0c2.9-0.7,6.1-1.5,9.6-2.6
		c0.1,0,0.2-0.1,0.3-0.1c3.5-1.1,7.1-2.3,10.8-3.6c0.1,0,0.2-0.1,0.3-0.1c3.2-1.2,6.4-2.4,9.5-3.7c0.5-0.2,0.9-0.4,1.3-0.6
		c0.1,0,0.2-0.1,0.2-0.1c3.4-1.5,6.3-2.9,8.6-4.1c0.1,0,0.1-0.1,0.2-0.1c2.3-1.3,4-2.4,5.1-3.3c0,0,0.1,0,0.1-0.1
		C100.4,2.6,100.8,1.8,100.6,1.3z"/>
	<path class="st1" d="M127,3.3l-0.1-0.1c-0.2,0-0.4,0-0.7,0l0,0c0.4,0.9-0.3,2.1-2.2,3.8l-0.1,0.1c-2,1.6-5,3.6-9,5.8
		c-0.1,0.1-0.2,0.1-0.3,0.2c-4.1,2.2-9.2,4.7-15.1,7.3c-0.1,0.1-0.3,0.1-0.4,0.2c-0.8,0.3-1.5,0.7-2.3,1c-5.4,2.3-11,4.5-16.6,6.6
		c-0.2,0.1-0.3,0.1-0.5,0.2c-6.4,2.4-12.9,4.5-18.9,6.4c-0.1,0-0.3,0.1-0.4,0.1c-6.1,1.8-11.8,3.4-16.8,4.6c-0.1,0-0.2,0.1-0.4,0.1
		c-5,1.1-9.3,1.9-12.6,2.1c-0.1,0-0.2,0-0.2,0c-0.6,0-1.1,0.1-1.6,0.1c-2.4,0-3.8-0.3-4.4-0.9c0,0,0,0-0.1-0.1
		c-0.2-0.2-0.3-0.5-0.3-0.7c0,0.1-0.1,0.1-0.1,0.2c-0.1,0.1-0.2,0.3-0.4,0.4c0,0.3,0.1,0.6,0.3,0.8c0,0,0,0,0.1,0.1
		c0.6,0.6,2.1,0.9,4.5,0.9c0.5,0,1.1,0,1.7-0.1c0.1,0,0.2,0,0.2,0c3.3-0.2,7.7-1,12.8-2.1c0.1,0,0.2-0.1,0.4-0.1
		c5.1-1.2,10.9-2.7,17-4.6c0.1,0,0.3-0.1,0.4-0.1c6.1-1.9,12.6-4.1,19.2-6.5c0.2-0.1,0.3-0.1,0.5-0.2c5.7-2.1,11.4-4.3,16.8-6.7
		c0.8-0.3,1.6-0.7,2.4-1c0.1-0.1,0.3-0.1,0.4-0.2c6-2.6,11.1-5.1,15.3-7.4c0.1-0.1,0.2-0.1,0.3-0.2c4.1-2.2,7.2-4.2,9.2-5.9l0.1-0.1
		C126.6,5.6,127.4,4.3,127,3.3C127,3.4,127,3.4,127,3.3z"/>
	<path class="st1" d="M151.4,11.7c-0.1,0-0.3,0-0.4,0c0.5,1.2-0.6,2.9-3.1,5c-0.1,0.1-0.1,0.1-0.2,0.2c-2.7,2.3-6.9,5-12.5,8
		c-0.1,0.1-0.3,0.1-0.4,0.2c-5.6,3.1-12.6,6.4-20.8,10c-0.2,0.1-0.4,0.2-0.6,0.3c-1.1,0.5-2.1,0.9-3.2,1.4C102.8,40,95,43,87.3,45.9
		c-0.2,0.1-0.4,0.2-0.6,0.2c-8.9,3.2-17.7,6.2-26,8.8c-0.2,0.1-0.4,0.1-0.6,0.2c-8.3,2.5-16.2,4.7-23.1,6.3c-0.2,0-0.3,0.1-0.5,0.1
		c-6.9,1.6-12.8,2.6-17.3,2.9c-0.1,0-0.2,0-0.3,0c-0.8,0.1-1.5,0.1-2.2,0.1c-3.3,0-5.3-0.4-6.1-1.2c0,0,0,0-0.1-0.1
		c-0.2-0.2-0.3-0.5-0.4-0.8l0,0C10,62.7,9.9,63,9.8,63.3c0.1,0.2,0.2,0.4,0.3,0.6c0,0,0,0.1,0.1,0.1c0.9,0.9,2.9,1.3,6.1,1.2
		c0.7,0,1.5,0,2.3-0.1c0.1,0,0.2,0,0.3,0c4.6-0.3,10.5-1.4,17.5-2.9c0.2,0,0.3-0.1,0.5-0.1c7-1.6,14.9-3.7,23.3-6.3
		c0.2-0.1,0.4-0.1,0.6-0.2C69.2,53,78.1,50,87,46.8c0.2-0.1,0.4-0.2,0.6-0.2c7.8-2.9,15.6-5.9,23.1-9.1c1.1-0.5,2.2-0.9,3.2-1.4
		c0.2-0.1,0.4-0.2,0.6-0.3c8.2-3.6,15.3-7,20.9-10.1c0.1-0.1,0.3-0.2,0.4-0.2c5.6-3.1,9.8-5.8,12.5-8.1c0.1-0.1,0.1-0.1,0.2-0.2
		c2.5-2.1,3.6-3.9,3.2-5C151.6,12,151.5,11.9,151.4,11.7z"/>
	<path class="st1" d="M173.3,26.7c-0.1-0.1-0.2-0.2-0.2-0.3c0.2,1.4-1.2,3.3-3.9,5.7c-0.1,0.1-0.2,0.1-0.2,0.2
		c-3.2,2.7-8.3,6-15.1,9.7c-0.2,0.1-0.3,0.2-0.5,0.3c-6.8,3.7-15.3,7.8-25.1,12.1c-0.2,0.1-0.5,0.2-0.7,0.3
		c-1.3,0.6-2.6,1.1-3.9,1.7c-9,3.8-18.4,7.5-27.7,11c-0.3,0.1-0.5,0.2-0.8,0.3c-10.7,3.9-21.4,7.5-31.5,10.6
		c-0.2,0.1-0.5,0.1-0.7,0.2c-10.1,3.1-19.6,5.7-28,7.6c-0.2,0-0.4,0.1-0.6,0.1c-8.3,1.9-15.5,3.1-21,3.5c-0.1,0-0.3,0-0.4,0
		c-1,0.1-1.9,0.1-2.7,0.1c-3.9,0.1-6.4-0.5-7.4-1.5l-0.1-0.1c-0.1-0.1-0.2-0.3-0.3-0.5c0,0.1-0.1,0.2-0.1,0.3c0,0.2,0,0.4,0,0.5
		c0.1,0.1,0.2,0.3,0.3,0.4L2.8,89c1,1,3.5,1.6,7.4,1.5c0.9,0,1.8,0,2.7-0.1c0.1,0,0.3,0,0.4,0c5.5-0.4,12.7-1.6,21.1-3.5
		c0.2,0,0.4-0.1,0.6-0.1c8.4-1.9,18-4.5,28.1-7.6c0.2-0.1,0.5-0.2,0.7-0.2c10.2-3.1,20.9-6.7,31.7-10.7c0.3-0.1,0.5-0.2,0.8-0.3
		c9.4-3.5,18.8-7.2,27.8-11c1.3-0.6,2.6-1.1,3.9-1.7c0.2-0.1,0.5-0.2,0.7-0.3c9.9-4.3,18.4-8.4,25.3-12.2c0.2-0.1,0.3-0.2,0.5-0.3
		c6.8-3.7,11.9-7,15.1-9.7c0.1-0.1,0.2-0.1,0.2-0.2c2.6-2.2,3.9-4.1,3.9-5.4C173.5,27,173.4,26.9,173.3,26.7z"/>
	<path class="st1" d="M191.1,46.6c-0.1-0.2-0.1-0.4-0.2-0.5c0.1,1.5-1.4,3.7-4.4,6.2c-0.1,0.1-0.2,0.1-0.3,0.2
		c-3.6,3-9.3,6.7-16.7,10.8c-0.2,0.1-0.4,0.2-0.5,0.3c-7.6,4.1-17,8.6-28,13.5c-0.3,0.1-0.5,0.2-0.8,0.4c-1.4,0.6-2.9,1.2-4.3,1.9
		c-10,4.3-20.4,8.4-30.8,12.2c-0.3,0.1-0.6,0.2-0.9,0.3c-11.9,4.4-23.8,8.4-35,11.8c-0.3,0.1-0.5,0.2-0.8,0.3
		c-11.2,3.4-21.8,6.3-31.1,8.4c-0.2,0.1-0.5,0.1-0.7,0.2c-9.3,2.1-17.2,3.5-23.3,3.9c-0.1,0-0.3,0-0.4,0c-1.1,0.1-2.1,0.1-3,0.1
		c-4.4,0.1-7.1-0.5-8.2-1.7l-0.1-0.1c0-0.1-0.1-0.1-0.1-0.2c0,0.2,0,0.5,0,0.8c0,0.1,0.1,0.1,0.2,0.2l0.1,0.1
		c1.1,1.1,3.8,1.7,8.2,1.7c0.9,0,2-0.1,3-0.1c0.1,0,0.3,0,0.4,0c6.1-0.4,14.1-1.8,23.4-3.9c0.2-0.1,0.4-0.1,0.7-0.2
		c9.3-2.1,19.9-5,31.2-8.4c0.3-0.1,0.5-0.2,0.8-0.3c11.3-3.5,23.2-7.5,35.1-11.8c0.3-0.1,0.6-0.2,0.9-0.3
		c10.4-3.8,20.8-7.9,30.9-12.2c1.5-0.6,2.9-1.2,4.3-1.9c0.3-0.1,0.5-0.2,0.8-0.4c11-4.8,20.4-9.4,28-13.5c0.2-0.1,0.4-0.2,0.5-0.3
		c7.5-4.1,13.2-7.7,16.8-10.8c0.1-0.1,0.2-0.1,0.3-0.2c2.8-2.4,4.3-4.3,4.4-5.9C191.2,46.9,191.1,46.8,191.1,46.6z"/>
	<path class="st1" d="M203.4,70.8C203.4,70.8,203.3,70.8,203.4,70.8c-0.2,1.5-1.7,3.5-4.5,6c-0.1,0.1-0.2,0.1-0.3,0.2
		c-3.7,3.1-9.6,6.9-17.3,11.1c-0.2,0.1-0.4,0.2-0.6,0.3c-7.8,4.2-17.5,8.9-28.9,13.9c-0.3,0.1-0.6,0.2-0.8,0.4
		c-1.5,0.6-3,1.3-4.5,1.9c-10.4,4.4-21.1,8.7-31.9,12.6c-0.3,0.1-0.6,0.2-0.9,0.3c-12.3,4.5-24.6,8.7-36.2,12.2
		c-0.3,0.1-0.6,0.2-0.8,0.3c-11.6,3.5-22.5,6.5-32.2,8.7c-0.2,0.1-0.5,0.1-0.7,0.2c-9.6,2.2-17.8,3.6-24.1,4.1c-0.2,0-0.3,0-0.5,0
		c-1.1,0.1-2.1,0.1-3.1,0.1c-4.5,0.1-7.3-0.5-8.5-1.7l-0.1-0.1c-0.1-0.1-0.2-0.3-0.3-0.5l0,0l0.2,0.5c0.1,0.2,0.2,0.5,0.4,0.7
		l0.1,0.1c1.2,1.2,4,1.8,8.5,1.7c1,0,2-0.1,3.1-0.1c0.2,0,0.3,0,0.5,0c6.3-0.5,14.6-1.9,24.1-4c0.2-0.1,0.5-0.1,0.7-0.2
		c9.6-2.2,20.6-5.2,32.2-8.7c0.3-0.1,0.6-0.2,0.8-0.3c11.6-3.6,23.9-7.7,36.2-12.2c0.3-0.1,0.6-0.2,0.9-0.3
		c10.7-4,21.5-8.2,31.8-12.6c1.5-0.6,3-1.3,4.5-1.9c0.3-0.1,0.6-0.2,0.8-0.4c11.4-5,21.1-9.7,28.9-13.9c0.2-0.1,0.4-0.2,0.6-0.3
		c7.7-4.2,13.6-8,17.3-11.1c0.1-0.1,0.2-0.2,0.3-0.2c2.9-2.4,4.4-4.5,4.5-6C203.5,71.3,203.4,71.1,203.4,70.8z"/>
	<path class="st1" d="M208.8,98.6c0-0.1-0.1-0.2-0.1-0.3c-0.5,1.4-1.9,3-4.1,4.9c-0.1,0.1-0.2,0.1-0.3,0.2c-3.6,3-9.2,6.7-16.7,10.7
		c-0.2,0.1-0.4,0.2-0.5,0.3c-7.6,4.1-16.9,8.6-27.9,13.4c-0.3,0.1-0.5,0.2-0.8,0.4c-1.4,0.6-2.8,1.2-4.3,1.9
		c-10,4.2-20.3,8.3-30.7,12.2c-0.3,0.1-0.6,0.2-0.9,0.3c-11.9,4.4-23.7,8.3-34.9,11.8c-0.3,0.1-0.5,0.2-0.8,0.3
		c-11.2,3.4-21.7,6.3-31,8.4c-0.2,0.1-0.4,0.1-0.7,0.2c-9.2,2.1-17.2,3.5-23.3,3.9c-0.1,0-0.3,0-0.4,0c-1.1,0.1-2.1,0.1-3,0.1
		c-4.4,0.1-7.1-0.5-8.2-1.7l-0.1-0.1c-0.1-0.1-0.1-0.1-0.2-0.2l0.5,0.6c0,0.1,0.1,0.1,0.1,0.2l0.1,0.1c1.1,1.1,3.8,1.7,8.2,1.7
		c0.9,0,1.9-0.1,3-0.1c0.1,0,0.3,0,0.4,0c6.1-0.4,14-1.8,23.2-3.9c0.2-0.1,0.4-0.1,0.7-0.2c9.3-2.1,19.8-5,31-8.4
		c0.3-0.1,0.5-0.2,0.8-0.3c11.2-3.4,23-7.4,34.9-11.8c0.3-0.1,0.6-0.2,0.9-0.3c10.3-3.8,20.7-7.9,30.6-12.1c1.5-0.6,2.9-1.2,4.3-1.9
		c0.3-0.1,0.5-0.2,0.8-0.4c10.9-4.8,20.3-9.3,27.8-13.4c0.2-0.1,0.4-0.2,0.5-0.3c7.4-4.1,13.1-7.7,16.7-10.7
		c0.1-0.1,0.2-0.1,0.3-0.2c2.3-1.9,3.7-3.6,4.2-5C208.8,98.8,208.8,98.7,208.8,98.6z"/>
	<path class="st1" d="M207.1,124.9c-0.6,1.1-1.7,2.5-3.5,4c-0.1,0.1-0.2,0.1-0.2,0.2c-3.2,2.7-8.3,6-15,9.6
		c-0.2,0.1-0.3,0.2-0.5,0.3c-6.8,3.7-15.2,7.7-25,12c-0.2,0.1-0.5,0.2-0.7,0.3c-1.3,0.6-2.6,1.1-3.9,1.7c-9,3.8-18.3,7.5-27.6,10.9
		c-0.3,0.1-0.5,0.2-0.8,0.3c-10.7,3.9-21.3,7.5-31.4,10.6c-0.2,0.1-0.5,0.2-0.7,0.2c-10,3.1-19.5,5.6-27.8,7.5
		c-0.2,0-0.4,0.1-0.6,0.1c-8.3,1.9-15.4,3.1-20.9,3.5c-0.1,0-0.3,0-0.4,0c-1,0.1-1.9,0.1-2.7,0.1c-3.7,0.1-6.1-0.4-7.2-1.3l0.6,0.5
		c1.1,0.9,3.5,1.4,7.1,1.3c0.8,0,1.7,0,2.7-0.1c0.1,0,0.3,0,0.4,0c5.4-0.4,12.5-1.6,20.8-3.5c0.2,0,0.4-0.1,0.6-0.1
		c8.3-1.9,17.7-4.5,27.7-7.5c0.2-0.1,0.5-0.1,0.7-0.2c10-3.1,20.6-6.6,31.2-10.5c0.3-0.1,0.5-0.2,0.8-0.3
		c9.3-3.4,18.5-7.1,27.4-10.9c1.3-0.6,2.6-1.1,3.8-1.7c0.2-0.1,0.5-0.2,0.7-0.3c9.8-4.3,18.2-8.3,24.9-12c0.2-0.1,0.3-0.2,0.5-0.3
		c6.7-3.6,11.7-6.9,14.9-9.6c0.1-0.1,0.2-0.1,0.2-0.2c2-1.7,3.3-3.2,3.7-4.4C207.1,125.1,207.1,125,207.1,124.9z"/>
	<path class="st1" d="M200,147.5c-0.4,1-1.5,2.1-3,3.5c-0.1,0.1-0.1,0.1-0.2,0.2c-2.7,2.3-7,5-12.6,8.1c-0.1,0.1-0.3,0.1-0.4,0.2
		c-5.7,3.1-12.7,6.5-21,10.1c-0.2,0.1-0.4,0.2-0.6,0.3c-1.1,0.5-2.1,0.9-3.2,1.4c-7.5,3.2-15.3,6.3-23.1,9.1
		c-0.2,0.1-0.4,0.2-0.6,0.2c-8.9,3.3-17.8,6.3-26.3,8.9c-0.2,0.1-0.4,0.1-0.6,0.2c-8.4,2.6-16.3,4.7-23.3,6.3
		c-0.2,0-0.3,0.1-0.5,0.1c-6.9,1.6-12.9,2.6-17.5,2.9c-0.1,0-0.2,0-0.3,0c-0.8,0.1-1.6,0.1-2.3,0.1c-2.6,0-4.4-0.2-5.4-0.7l-0.7-0.3
		c1.1,0.5,2.9,0.8,5.5,0.8c0.7,0,1.5,0,2.3-0.1c0.1,0,0.2,0,0.3,0c4.6-0.3,10.6-1.4,17.6-3c0.2,0,0.3-0.1,0.5-0.1
		c7-1.6,15-3.8,23.5-6.4c0.2-0.1,0.4-0.1,0.6-0.2c8.5-2.6,17.5-5.6,26.5-8.9c0.2-0.1,0.4-0.2,0.7-0.2c7.8-2.9,15.7-6,23.3-9.2
		c1.1-0.5,2.2-0.9,3.3-1.4c0.2-0.1,0.4-0.2,0.6-0.3c8.3-3.6,15.4-7.1,21.1-10.2c0.1-0.1,0.3-0.2,0.4-0.2c5.7-3.1,9.9-5.8,12.7-8.1
		c0.1-0.1,0.1-0.1,0.2-0.2c1.6-1.4,2.6-2.5,3.1-3.5L200,147.5"/>
	<path class="st1" d="M187.7,168.2c-0.4,0.5-1,1.1-1.7,1.8l-0.1,0.1c-2.1,1.7-5.3,3.8-9.6,6.2c-0.1,0.1-0.2,0.1-0.3,0.2
		c-4.3,2.3-9.7,4.9-16,7.7c-0.2,0.1-0.3,0.1-0.5,0.2c-0.8,0.4-1.6,0.7-2.5,1.1c-5.7,2.4-11.7,4.8-17.6,7c-0.2,0.1-0.3,0.1-0.5,0.2
		c-6.8,2.5-13.6,4.8-20,6.8c-0.2,0-0.3,0.1-0.5,0.1c-6.4,2-12.5,3.6-17.8,4.8c-0.1,0-0.3,0.1-0.4,0.1c-5.3,1.2-9.9,2-13.3,2.2
		c-0.1,0-0.2,0-0.3,0c-0.6,0-1.2,0.1-1.7,0.1c-1.3,0-2.3-0.1-3.1-0.2l-0.8-0.2c0.8,0.2,1.9,0.3,3.2,0.3c0.5,0,1.1,0,1.7-0.1
		c0.1,0,0.2,0,0.3,0c3.5-0.3,8.1-1,13.5-2.3c0.1,0,0.3-0.1,0.4-0.1c5.4-1.2,11.5-2.9,18-4.9c0.2,0,0.3-0.1,0.5-0.1
		c6.5-2,13.4-4.3,20.3-6.8c0.2-0.1,0.3-0.1,0.5-0.2c6-2.2,12-4.6,17.8-7c0.8-0.4,1.7-0.7,2.5-1.1c0.2-0.1,0.3-0.1,0.5-0.2
		c6.4-2.8,11.8-5.4,16.2-7.8c0.1-0.1,0.2-0.1,0.3-0.2c4.3-2.4,7.6-4.5,9.7-6.2c0.1,0,0.1-0.1,0.1-0.1c0.8-0.7,1.4-1.3,1.8-1.8
		L187.7,168.2"/>
	<path class="st1" d="M170,186.2c-1.3,1-3.2,2.2-5.6,3.5c-0.1,0-0.1,0.1-0.2,0.1c-2.7,1.5-6.1,3.1-10.1,4.9c-0.1,0-0.2,0.1-0.3,0.1
		c-0.5,0.2-1,0.4-1.6,0.7c-3.6,1.5-7.4,3-11.2,4.4c-0.1,0-0.2,0.1-0.3,0.1c-4.3,1.6-8.6,3-12.7,4.3c-0.1,0-0.2,0.1-0.3,0.1
		c-4.1,1.2-7.9,2.3-11.3,3.1c-0.1,0-0.2,0-0.2,0.1c-3.4,0.8-6.2,1.3-8.5,1.4c-0.1,0-0.1,0-0.2,0c-0.4,0-0.7,0-1.1,0h-0.2h-0.6h0.1
		c0.3,0,0.7,0,1.1,0c0.1,0,0.1,0,0.2,0c2.3-0.2,5.2-0.7,8.6-1.4c0.1,0,0.2,0,0.2-0.1c3.4-0.8,7.4-1.9,11.5-3.1
		c0.1,0,0.2-0.1,0.3-0.1c4.2-1.3,8.6-2.8,13-4.4c0.1,0,0.2-0.1,0.3-0.1c3.8-1.4,7.7-2.9,11.4-4.5c0.5-0.2,1.1-0.5,1.6-0.7
		c0.1,0,0.2-0.1,0.3-0.1c4.1-1.8,7.5-3.5,10.3-5c0.1,0,0.1-0.1,0.2-0.1c2.5-1.4,4.5-2.6,5.8-3.7L170,186.2"/>
</g>
</svg>
