<?xml version="1.0" encoding="UTF-8" standalone="no"?>
<!-- Generator: Adobe Illustrator 21.1.0, SVG Export Plug-In . SVG Version: 6.00 Build 0)  -->

<svg
   xmlns:dc="http://purl.org/dc/elements/1.1/"
   xmlns:cc="http://creativecommons.org/ns#"
   xmlns:rdf="http://www.w3.org/1999/02/22-rdf-syntax-ns#"
   xmlns:svg="http://www.w3.org/2000/svg"
   xmlns="http://www.w3.org/2000/svg"
   xmlns:sodipodi="http://sodipodi.sourceforge.net/DTD/sodipodi-0.dtd"
   xmlns:inkscape="http://www.inkscape.org/namespaces/inkscape"
   version="1.1"
   id="Layer_1"
   x="0px"
   y="0px"
   viewBox="0 0 200 200"
   style="enable-background:new 0 0 200 200;"
   xml:space="preserve"
   inkscape:version="0.91 r13725"
   sodipodi:docname="1832-200.svg"><metadata
     id="metadata17"><rdf:RDF><cc:Work
         rdf:about=""><dc:format>image/svg+xml</dc:format><dc:type
           rdf:resource="http://purl.org/dc/dcmitype/StillImage" /></cc:Work></rdf:RDF></metadata><defs
     id="defs15" /><sodipodi:namedview
     pagecolor="#ffffff"
     bordercolor="#666666"
     borderopacity="1"
     objecttolerance="10"
     gridtolerance="10"
     guidetolerance="10"
     inkscape:pageopacity="0"
     inkscape:pageshadow="2"
     inkscape:window-width="1858"
     inkscape:window-height="1057"
     id="namedview13"
     showgrid="false"
     inkscape:zoom="4.72"
     inkscape:cx="69.201778"
     inkscape:cy="40.148732"
     inkscape:window-x="1974"
     inkscape:window-y="-8"
     inkscape:window-maximized="1"
     inkscape:current-layer="g5" /><style
     type="text/css"
     id="style3">
	.st0{fill:#FFFFFF;}
</style><g
     id="g5"
     style="display:inline"><path
       class="st0"
       d="m 108,0 c 30.7,0 61.3,0 92,0 0,66.7 0,133.3 0,200 -66.7,0 -133.3,0 -200,0 C 0,133.3 0,66.7 0,0 c 30.7,0 61.3,0 92,0 -1.1,0.3 -2.2,0.7 -3.3,1 -27,5.4 -45,21.2 -53.6,47.4 -6.1,18.6 -2,36.5 5.2,53.9 14.5,34.9 35.5,65.8 58.1,95.7 0.4,0.5 0.9,0.9 1.6,1.6 1.2,-1.4 2.3,-2.6 3.3,-3.9 10.2,-14.8 20.9,-29.3 30.6,-44.4 12.6,-19.6 23.5,-40.2 30.5,-62.6 C 176,51.8 155.2,12.9 118.1,2.5 114.8,1.5 111.4,0.8 108,0 Z"
       id="path7"
       inkscape:connector-curvature="0"
       style="fill:#ffffff" /><path
       d="m 108,0 c 3.4,0.8 6.8,1.5 10.1,2.5 37.2,10.4 58,49.3 46.3,86.2 -7.1,22.4 -17.9,43 -30.5,62.6 -9.7,15.1 -20.3,29.6 -30.6,44.4 -0.9,1.3 -2.1,2.5 -3.3,3.9 -0.7,-0.7 -1.3,-1.1 -1.6,-1.6 C 75.8,168.1 54.8,137.2 40.3,102.3 33.1,84.8 29,67 35.1,48.3 43.7,22.2 61.7,6.4 88.7,1 89.8,0.8 90.9,0.4 92,0 c 5.3,0 10.7,0 16,0 z M 66.9,67.7 C 66.9,86 81.6,100.9 99.8,101 118,101 133,86.3 133.1,68.1 133.2,49.5 118.5,34.7 100,34.7 c -18.4,0 -33.1,14.6 -33.1,33 z"
       id="path9"
       style="fill:#f7b71e;stroke:none;fill-opacity:1"
       inkscape:connector-curvature="0" /><path
       class="st0"
       d="m 66.9,67.7 c 0,-18.4 14.6,-33 33,-33 18.6,0 33.3,14.8 33.1,33.4 -0.1,18.2 -15.1,33 -33.3,32.9 C 81.6,100.8 66.9,85.9 66.9,67.7 Z"
       id="path11"
       inkscape:connector-curvature="0"
       style="fill:#ffffff" /></g></svg>